<?xml version="1.0" encoding="utf-8"?>
<!-- Generator: Adobe Illustrator 16.0.0, SVG Export Plug-In . SVG Version: 6.00 Build 0)  -->
<!DOCTYPE svg PUBLIC "-//W3C//DTD SVG 1.1//EN" "http://www.w3.org/Graphics/SVG/1.1/DTD/svg11.dtd">
<svg version="1.1" xmlns="http://www.w3.org/2000/svg" xmlns:xlink="http://www.w3.org/1999/xlink" x="0px" y="0px" width="399px"
	 height="145px" viewBox="0 0 399 145" enable-background="new 0 0 399 145" xml:space="preserve">
<g id="Layer_1">
</g>
<g id="Layer_2">
	<g>
		<path d="M232.752,71.469c-4.972-3.99-9.12-4.887-14.787-4.887c-13.09,0-22.939,11.578-22.939,24.656
			c0,13.076,9.727,24.906,22.817,24.906c5.899,0,11.077-1.398,16.099-5.948c0.063-0.05,4.316,3.207,4.316,3.207
			c-5.645,5.107-12.728,7.97-20.172,7.97c-16.453,0-28.459-13.325-28.459-30.135c0-16.689,12.248-29.89,28.579-29.89
			c7.204,0,13.806,2.245,19.329,7.101C237.535,68.449,232.783,71.499,232.752,71.469z"/>
		<path d="M251.545,91.859c-0.369,14.572,9.714,24.285,23.041,24.285c7.85,0,15.061-4.569,18.841-10.584
			c0.012-0.021,6.808-0.063,6.808-0.063c-5.523,10.023-15.064,15.875-26.398,15.875c-17.059,0-27.889-13.822-27.889-30.135
			c0-16.067,11.077-29.89,27.889-29.89c17.437,0,27.771,13.949,27.65,30.511H251.545z M295.879,86.63
			c-1.367-10.587-10.086-20.048-21.914-20.048c-11.71,0-21.42,9.217-22.42,20.048H295.879z"/>
		<path d="M89.902,91.859c-0.371,14.572,9.713,24.285,23.041,24.285c7.845,0,15.188-4.665,18.967-10.678
			c0.01-0.019,6.682-0.098,6.682-0.098c-5.525,10.023-15.063,16.004-26.396,16.004c-17.063,0-27.895-13.822-27.895-30.135
			c0-16.067,11.084-29.89,27.895-29.89c17.432,0,27.772,13.949,27.648,30.511H89.902z M134.241,86.63
			c-1.374-10.587-10.089-20.048-21.923-20.048c-11.704,0-21.42,9.217-22.416,20.048H134.241z"/>
		<g>
			<path d="M182.534,71.633c-3.29-3.29-5.825-3.953-10.364-3.953c-9.405,0-14.625,7.706-14.625,16.551v36.503h-5.011V63.258h5.011
				v7.258c3.171-5.104,9.521-7.94,15.982-7.94c5.22,0,9.588,1.604,13.44,5.46L182.534,71.633z"/>
		</g>
		<g>
			<path d="M352.195,120.735V85.559c0-10.939-5.709-16.937-16.164-16.937c-10.445,0-16.518,6.233-16.776,16.937v35.177h-5.678
				V64.032h5.937v6.705c4.373-4.943,10.203-7.41,17.249-7.41c6.559,0,11.789,1.878,15.556,5.408
				c3.885,3.648,5.676,8.834,5.688,15.766v36.234H352.195z"/>
		</g>
	</g>
	<g>
		<g>
			<rect x="35.681" y="18.79" fill="#0099FF" width="14.638" height="14.636"/>
			<rect x="35.681" y="33.378" fill="#00FFFF" width="14.638" height="14.634"/>
			<rect x="35.681" y="47.975" fill="#6D0000" width="14.638" height="14.639"/>
			<rect x="35.681" y="62.554" fill="#0000FF" width="14.638" height="14.635"/>
			<rect x="35.681" y="77.094" fill="#FFBF00" width="14.638" height="14.636"/>
			<rect x="35.681" y="91.681" fill="#99FF00" width="14.638" height="14.638"/>
			<rect x="50.309" y="106.32" fill="#FF0000" width="14.639" height="14.64"/>
			<rect x="21.031" y="47.975" fill="#FF8200" width="14.637" height="14.639"/>
			<rect x="50.318" y="47.975" fill="#66FF7F" width="14.635" height="14.639"/>
			<rect x="64.898" y="47.975" fill="#FF4F00" width="14.64" height="14.639"/>
		</g>
	</g>
</g>
</svg>
